<svg version="1.1" xmlns="http://www.w3.org/2000/svg" xmlns:xlink="http://www.w3.org/1999/xlink" width="32" height="32" viewBox="0,0,256,256"><g fill="#ffffff" fill-rule="nonzero" stroke="none" stroke-width="1" stroke-linecap="butt" stroke-linejoin="miter" stroke-miterlimit="10" stroke-dasharray="" stroke-dashoffset="0" font-family="none" font-weight="none" font-size="none" text-anchor="none" style="mix-blend-mode: normal"><g transform="translate(-3.99951,3.99926)"><path d="M152.27,37.93c0.54844,-2.05047 1.88926,-3.79894 3.72729,-4.86049c1.83802,-1.06155 4.02257,-1.34916 6.07271,-0.79951c30.19808,7.87903 53.78097,31.46192 61.66,61.66c0.54965,2.05015 0.26205,4.23469 -0.79951,6.07271c-1.06155,1.83802 -2.81002,3.17884 -4.86049,3.72729c-0.67574,0.1775 -1.37134,0.26823 -2.07,0.27c-3.62197,0.00111 -6.79282,-2.43138 -7.73,-5.93c-6.42294,-24.65601 -25.67527,-43.91216 -50.33,-50.34c-2.05232,-0.54628 -3.80319,-1.88621 -4.86676,-3.72448c-1.06357,-1.83827 -1.35255,-4.02401 -0.80324,-6.07552M149.94,79.73c13.79,3.68 22.65,12.55 26.33,26.34c0.93718,3.49862 4.10803,5.93111 7.73,5.93c0.69866,-0.00177 1.39426,-0.0925 2.07,-0.27c2.05047,-0.54844 3.79894,-1.88926 4.86049,-3.72729c1.06155,-1.83802 1.34916,-4.02257 0.79951,-6.07271c-5.12,-19.16 -18.5,-32.54 -37.66,-37.66c-4.26916,-1.14047 -8.65453,1.39584 -9.795,5.665c-1.14047,4.26916 1.39584,8.65453 5.665,9.795M222.37,158.46l-47.11,-21.11l-0.13,-0.06c-4.96862,-2.12512 -10.67423,-1.59856 -15.17,1.4c-0.26056,0.17209 -0.51098,0.35907 -0.75,0.56l-24.34,20.75c-15.42,-7.49 -31.34,-23.29 -38.83,-38.51l20.78,-24.71c0.2,-0.25 0.39,-0.5 0.57,-0.77c2.93339,-4.48248 3.42888,-10.13556 1.32,-15.06v-0.12l-21.17,-47.19c-2.81901,-6.50502 -9.58268,-10.37928 -16.62,-9.52c-28.0311,3.68858 -48.97068,27.6073 -48.92,55.88c0,79.4 64.6,144 144,144c28.2727,0.05068 52.19142,-20.8889 55.88,-48.92c0.86083,-7.03482 -3.00891,-13.79769 -9.51,-16.62"></path></g></g></svg>