<svg version="1.1" xmlns="http://www.w3.org/2000/svg" xmlns:xlink="http://www.w3.org/1999/xlink" width="32" height="32" viewBox="0,0,256,256"><g fill="#ffed00" fill-rule="evenodd" stroke="none" stroke-width="1" stroke-linecap="butt" stroke-linejoin="miter" stroke-miterlimit="10" stroke-dasharray="" stroke-dashoffset="0" font-family="none" font-weight="none" font-size="none" text-anchor="none" style="mix-blend-mode: normal"><g transform="translate(0.01784,0.07858) scale(18.28571,18.28571)"><path d="M7,0.277c-0.40222,0.00018 -0.76828,0.23227 -0.94,0.596l-1.588,3.205c-0.0042,0.00756 -0.0082,0.01523 -0.012,0.023c-0.0077,0.00115 -0.01537,0.00248 -0.023,0.004l-3.497,0.518c-0.40501,0.03932 -0.74989,0.31123 -0.88262,0.69588c-0.13274,0.38466 -0.02895,0.81139 0.26562,1.09212l2.56,2.469l0.006,0.005c0.00735,0.00691 0.01073,0.01706 0.009,0.027v0.004l-0.61,3.568v0.001c-0.06831,0.39466 0.09386,0.79381 0.41806,1.029c0.32421,0.23519 0.75397,0.26545 1.10794,0.078l3.15,-1.665c0.02295,-0.01002 0.04905,-0.01002 0.072,0l3.15,1.664c0.35381,0.18869 0.78422,0.15918 1.10897,-0.07603c0.32474,-0.23521 0.48699,-0.63497 0.41803,-1.02997l-0.61,-3.57v-0.003c-0.002,-0.004 -0.001,-0.01 0,-0.014c0.0015,-0.00495 0.00426,-0.00943 0.008,-0.013l0.006,-0.005l2.559,-2.47c0.29392,-0.28082 0.39728,-0.70714 0.26461,-1.09138c-0.13267,-0.38424 -0.47705,-0.65597 -0.88161,-0.69562l-3.496,-0.518c-0.00763,-0.00152 -0.0153,-0.00285 -0.023,-0.004c-0.0038,-0.00777 -0.0078,-0.01544 -0.012,-0.023l-1.588,-3.205c-0.17172,-0.36373 -0.53778,-0.59582 -0.94,-0.596"></path></g></g></svg>